HIERARCHY
ROOT Hips
{
 OFFSET 0.000000 0.000000 0.000000
 CHANNELS 6 Xposition Yposition Zposition Yrotation Xrotation Zrotation
 JOINT Chest
 {
  OFFSET 0.000000 9.585900 0.002600
  CHANNELS 3 Yrotation Xrotation Zrotation
  JOINT Chest2
  {
   OFFSET 0.000000 9.601200 -0.005300
   CHANNELS 3 Yrotation Xrotation Zrotation
   JOINT Chest3
   {
    OFFSET 0.000000 9.561800 0.000000
    CHANNELS 3 Yrotation Xrotation Zrotation
    JOINT Chest4
    {
     OFFSET 0.000000 9.552100 0.000000
     CHANNELS 3 Yrotation Xrotation Zrotation
     JOINT Neck
     {
      OFFSET 0.000000 14.453000 0.000000
      CHANNELS 3 Yrotation Xrotation Zrotation
      JOINT Head
      {
       OFFSET 0.000000 8.936500 -0.011300
       CHANNELS 3 Yrotation Xrotation Zrotation
       End Site
       {
        OFFSET 0.000000 17.073600 -0.006000
       }
      }
     }
     JOINT RightCollar
     {
      OFFSET -2.921100 9.558500 0.000000
      CHANNELS 3 Yrotation Xrotation Zrotation
      JOINT RightShoulder
      {
       OFFSET -13.519700 0.000000 0.000000
       CHANNELS 3 Yrotation Xrotation Zrotation
       JOINT RightElbow
       {
        OFFSET 0.000000 -29.696600 0.000000
        CHANNELS 3 Yrotation Xrotation Zrotation
        JOINT RightWrist
        {
         OFFSET 0.000000 -24.004700 0.000000
         CHANNELS 3 Yrotation Xrotation Zrotation
         End Site
         {
          OFFSET 0.000000 -17.728500 0.000000
         }
        }
       }
      }
     }
     JOINT LeftCollar
     {
      OFFSET 2.921100 9.558500 0.000000
      CHANNELS 3 Yrotation Xrotation Zrotation
      JOINT LeftShoulder
      {
       OFFSET 13.519700 0.000000 0.000000
       CHANNELS 3 Yrotation Xrotation Zrotation
       JOINT LeftElbow
       {
        OFFSET 0.000000 -29.696600 0.000000
        CHANNELS 3 Yrotation Xrotation Zrotation
        JOINT LeftWrist
        {
         OFFSET 0.000000 -24.004700 0.000000
         CHANNELS 3 Yrotation Xrotation Zrotation
         End Site
         {
          OFFSET 0.000000 -17.728500 0.000000
         }
        }
       }
      }
     }
    }
   }
  }
 }
 JOINT RightHip
 {
  OFFSET -7.771700 -0.012900 -0.001300
  CHANNELS 3 Yrotation Xrotation Zrotation
  JOINT RightKnee
  {
   OFFSET 0.000000 -40.869800 0.001200
   CHANNELS 3 Yrotation Xrotation Zrotation
   JOINT RightAnkle
   {
    OFFSET 0.000000 -39.717900 0.002100
    CHANNELS 3 Yrotation Xrotation Zrotation
    JOINT RightToe
    {
     OFFSET 0.000000 -4.965400 11.033500
     CHANNELS 3 Yrotation Xrotation Zrotation
     End Site
     {
      OFFSET 0.000000 -1.423100 5.872300
     }
    }
   }
  }
 }
 JOINT LeftHip
 {
  OFFSET 7.771700 -0.012900 -0.001300
  CHANNELS 3 Yrotation Xrotation Zrotation
  JOINT LeftKnee
  {
   OFFSET 0.000000 -40.869800 0.001200
   CHANNELS 3 Yrotation Xrotation Zrotation
   JOINT LeftAnkle
   {
    OFFSET 0.000000 -39.717900 0.002100
    CHANNELS 3 Yrotation Xrotation Zrotation
    JOINT LeftToe
    {
     OFFSET 0.000000 -4.965400 11.033500
     CHANNELS 3 Yrotation Xrotation Zrotation
     End Site
     {
      OFFSET 0.000000 -1.423100 5.872300
     }
    }
   }
  }
 }
}
MOTION
Frames: 9
Frame Time: 0.008333
0.000000 85.388000 0.000000 0.000000 -5.767877 0.000000 0.000000 11.653817 0.000000 0.000000 -5.885947 0.000000 0.000000 -0.000000 0.000000 0.000000 -0.000000 0.000000 0.000000 12.528835 0.000000 0.000000 0.711642 0.000000 0.000000 -0.000000 0.000000 0.000000 0.000000 -90.000000 0.000000 -2.309062 0.000000 0.000000 2.309062 0.000000 0.000000 -0.000000 0.000000 0.000000 -0.000000 90.000000 0.000000 -2.309062 0.000000 0.000000 2.309062 0.000000 0.000000 8.520406 0.000000 0.000000 1.905762 0.000000 -0.000000 -4.658285 0.000000 0.000000 -0.000000 0.000000 0.000000 8.520406 0.000000 0.000000 1.905762 0.000000 -0.000000 -4.658285 0.000000 0.000000 -0.000000 0.000000
-91.218232 62.081935 17.989014 172.612745 -48.503320 0.278555 4.313202 25.033848 3.218822 0.531168 4.005182 0.438401 0.895277 6.362566 0.837338 3.221533 20.588851 2.924592 7.741623 19.346383 1.284974 13.750330 0.331981 -0.027013 4.345570 5.952478 5.371467 -2.366188 -9.178158 -18.402570 -112.013344 -54.781697 147.222750 0.199169 -6.781715 -20.411665 -6.303060 3.547767 1.946281 1.372536 -3.253648 12.376200 153.932761 -63.319491 -173.345216 4.111375 -11.725976 8.507193 3.178033 -19.045357 -4.350006 -1.421475 61.376187 -4.574348 2.345585 -7.025921 9.609930 0.193525 -0.530042 0.103147 -3.426119 -14.734385 4.142727 30.541600 75.862860 32.739172 1.650987 -11.858088 -6.035064 0.336191 0.748342 0.154607
-91.221296 62.081566 17.987535 172.624949 -48.499370 0.253727 4.300596 25.068412 3.120133 0.536017 3.989745 0.472687 0.897500 6.351336 0.844506 3.204691 20.598329 2.893427 7.728306 19.302668 1.291446 13.726104 0.249592 -0.015391 4.403228 5.777717 5.366074 -2.283531 -9.221130 -18.444586 -112.299966 -54.945064 147.356782 0.344582 -6.675029 -20.165847 -6.346926 3.423134 1.891204 1.176424 -3.256411 12.498474 154.226848 -63.587481 -173.546694 4.060682 -11.663423 8.443914 3.169247 -19.047668 -4.330209 -1.413278 61.375115 -4.574632 2.338841 -7.023877 9.617998 0.198920 -0.519014 0.101540 -3.431367 -14.741395 4.161948 30.561014 75.870874 32.760413 1.636586 -11.867122 -6.033341 0.338962 0.752573 0.157237
-91.226877 62.080708 17.986993 172.653464 -48.492226 0.224041 4.277504 25.082004 3.068302 0.538293 3.984724 0.483283 0.864490 6.382192 0.750757 3.238320 20.577490 2.934005 7.711855 19.256295 1.295392 13.696948 0.162228 -0.007608 4.470394 5.643976 5.380136 -2.202135 -9.298019 -18.506122 -112.648780 -55.110271 147.536300 0.494111 -6.562901 -19.912973 -6.385843 3.298026 1.836866 0.981968 -3.269812 12.621443 154.458777 -63.844380 -173.699934 4.010010 -11.606207 8.371795 3.171401 -19.050961 -4.314792 -1.436928 61.374276 -4.602297 2.325838 -7.023008 9.628391 0.203682 -0.510186 0.107543 -3.450320 -14.751332 4.174051 30.595055 75.871423 32.783251 1.632820 -11.880310 -6.019232 0.323766 0.769214 0.152101
-91.232809 62.079595 17.987929 172.694498 -48.484161 0.180288 4.246897 25.093560 3.021577 0.548287 3.969484 0.524238 0.844455 6.403777 0.697570 3.224255 20.585434 2.905399 7.689858 19.203402 1.296506 13.658921 0.062665 -0.003968 4.540630 5.529471 5.400394 -2.123646 -9.386015 -18.574516 -113.049993 -55.274675 147.755856 0.654082 -6.441831 -19.652725 -6.423522 3.172762 1.781861 0.796114 -3.293044 12.743373 154.625139 -64.090885 -173.813240 3.965356 -11.568796 8.293267 3.185942 -19.050702 -4.289848 -1.482508 61.367712 -4.648207 2.301857 -7.022583 9.650261 0.206467 -0.500830 0.113017 -3.468519 -14.767289 4.189890 30.596415 75.878740 32.789920 1.614803 -11.884393 -6.010008 0.335139 0.773645 0.151440
-91.237294 62.078554 17.990689 172.742323 -48.477765 0.117232 4.223095 25.095178 3.021415 0.537726 3.983398 0.488637 0.845764 6.406791 0.693668 3.210803 20.595327 2.877361 7.659850 19.141307 1.295438 13.607413 -0.054182 -0.002767 4.608365 5.418114 5.413830 -2.051661 -9.467034 -18.633349 -113.489759 -55.441788 148.008477 0.829654 -6.314192 -19.382360 -6.460231 3.046807 1.727088 0.619204 -3.320723 12.865236 154.728102 -64.319791 -173.895020 3.928489 -11.554263 8.216143 3.161801 -19.051495 -4.259200 -1.505429 61.357060 -4.665531 2.301761 -7.015981 9.636135 0.214898 -0.491841 0.124893 -3.493019 -14.779837 4.215891 30.599791 75.881442 32.804026 1.614691 -11.893642 -6.009236 0.337846 0.787183 0.152766
-91.243294 62.077153 17.995508 172.785917 -48.469828 0.061802 4.200990 25.094830 3.018227 0.520009 4.015707 0.399298 0.862544 6.390610 0.743002 3.224656 20.585816 2.895822 7.583577 19.094368 1.258080 13.538958 -0.188124 -0.000853 4.645129 5.337370 5.388903 -1.987893 -9.544328 -18.680951 -113.969198 -55.613170 148.293821 1.020368 -6.177729 -19.096704 -6.522331 2.937543 1.634518 0.447183 -3.352773 12.987830 154.760210 -64.527843 -173.937616 3.896222 -11.550755 8.146470 3.130633 -19.054698 -4.228356 -1.495020 61.345155 -4.672010 2.301690 -7.011379 9.636851 0.200936 -0.491210 0.137277 -3.507226 -14.805017 4.230237 30.628038 75.891837 32.853688 1.620896 -11.874482 -6.013093 0.335513 0.772731 0.155508
-91.251331 62.076652 18.001293 172.823271 -48.470277 0.020527 4.176172 25.110075 2.976063 0.522531 4.017618 0.396418 0.860789 6.397410 0.736134 3.200667 20.608103 2.847613 7.553638 19.003839 1.273582 13.453280 -0.336245 0.002294 4.723950 5.233062 5.413357 -1.932294 -9.619280 -18.718799 -114.479949 -55.773657 148.600986 1.235045 -6.019328 -18.788937 -6.542737 2.808637 1.596593 0.276540 -3.390079 13.112487 154.721621 -64.716375 -173.935391 3.866468 -11.545432 8.082921 3.120626 -19.046687 -4.209463 -1.504787 61.330055 -4.687616 2.294848 -7.008952 9.641279 0.197096 -0.484041 0.142578 -3.524998 -14.815553 4.238942 30.636057 75.893655 32.867670 1.621830 -11.861676 -6.007559 0.333790 0.768246 0.155339
-91.259945 62.076581 18.008601 172.867820 -48.475256 -0.024850 4.152059 25.136744 2.885255 0.527433 4.009528 0.444827 0.859233 6.404724 0.729802 3.179236 20.630555 2.802357 7.513326 18.908060 1.288277 13.352388 -0.495128 0.007014 4.800927 5.139490 5.433050 -1.886996 -9.692162 -18.746704 -115.008286 -55.921163 148.921845 1.478088 -5.842141 -18.459264 -6.566267 2.683441 1.555368 0.103081 -3.430054 13.237865 154.626320 -64.889943 -173.889900 3.837027 -11.539711 8.024687 3.104447 -19.033745 -4.189187 -1.515945 61.313293 -4.707378 2.284104 -7.004164 9.644386 0.216718 -0.480792 0.140744 -3.545720 -14.821756 4.245232 30.631963 75.892979 32.871386 1.622351 -11.847015 -6.001087 0.327823 0.764998 0.154740
